<svg width="20" height="15" viewBox="0 0 20 15" fill="none" xmlns="http://www.w3.org/2000/svg">
<path d="M12 10L12.3536 9.64645L12.7071 10L12.3536 10.3536L12 10ZM8.35355 5.64645L12.3536 9.64645L11.6464 10.3536L7.64645 6.35355L8.35355 5.64645ZM12.3536 10.3536L8.35355 14.3536L7.64645 13.6464L11.6464 9.64645L12.3536 10.3536Z" fill="#222222"/>
<path d="M17.7942 7.75C18.8108 6.86965 19.2012 5.84314 18.902 4.83767C18.6027 3.83221 17.6315 2.90702 16.1463 2.2128C14.6612 1.51858 12.7497 1.09623 10.7232 1.01455C8.69666 0.932869 6.67454 1.19667 4.98617 1.76297C3.2978 2.32928 2.04265 3.16473 1.42516 4.13325C0.807663 5.10177 0.86421 6.14629 1.58559 7.09669C2.30696 8.04709 3.65067 8.84736 5.39784 9.36717C7.14501 9.88698 9.19271 10.0957 11.2074 9.95932" stroke="#222222" stroke-linecap="round"/>
</svg>
