<svg width="20" height="20" viewBox="0 0 20 20" fill="none" xmlns="http://www.w3.org/2000/svg">
<path d="M1 5C1 3.11438 1 2.17157 1.58579 1.58579C2.17157 1 3.11438 1 5 1H15C16.8856 1 17.8284 1 18.4142 1.58579C19 2.17157 19 3.11438 19 5V15C19 16.8856 19 17.8284 18.4142 18.4142C17.8284 19 16.8856 19 15 19H5C3.11438 19 2.17157 19 1.58579 18.4142C1 17.8284 1 16.8856 1 15V5Z" stroke="#222222"/>
<path d="M1 10V10C1 10.9319 1 11.3978 1.15224 11.7654C1.35523 12.2554 1.74458 12.6448 2.23463 12.8478C2.60218 13 3.06812 13 4 13H4.67544C5.25646 13 5.54696 13 5.77888 13.1338C5.83745 13.1675 5.89245 13.2072 5.94303 13.2521C6.14326 13.4298 6.23513 13.7054 6.41886 14.2566L6.54415 14.6325C6.76416 15.2925 6.87416 15.6225 7.13605 15.8112C7.39794 16 7.7458 16 8.44152 16H11.5585C12.2542 16 12.6021 16 12.864 15.8112C13.1258 15.6225 13.2358 15.2925 13.4558 14.6325L13.5811 14.2566C13.7649 13.7054 13.8567 13.4298 14.057 13.2521C14.1075 13.2072 14.1625 13.1675 14.2211 13.1338C14.453 13 14.7435 13 15.3246 13H16C16.9319 13 17.3978 13 17.7654 12.8478C18.2554 12.6448 18.6448 12.2554 18.8478 11.7654C19 11.3978 19 10.9319 19 10V10" stroke="#222222"/>
<path d="M7.5 8.5L10 11M10 11L12.5 8.5M10 11L10 4" stroke="#222222"/>
</svg>
